STARTFONT 2.1
FONT -Luma-Luma UI Bold-10-100-75-75-C-60-ISO10646-1
SIZE 10 75 75
FONTBOUNDINGBOX 6 10 0 -1
STARTPROPERTIES 3
FAMILY_NAME "Luma UI Bold"
FONT_VERSION "bold"
COPYRIGHT "Derived from Fusion Pixel Font / Fusion Bold Pixel Font (OFL-1.1)"
ENDPROPERTIES
CHARS 96
STARTCHAR u0020
ENCODING 32
DWIDTH 6 0
BBX 6 10 0 -1
BITMAP
00
00
00
00
00
00
00
00
00
00
ENDCHAR
STARTCHAR u0021
ENCODING 33
DWIDTH 6 0
BBX 6 10 0 -1
BITMAP
00
00
30
30
30
30
30
00
30
00
ENDCHAR
STARTCHAR u0022
ENCODING 34
DWIDTH 6 0
BBX 6 10 0 -1
BITMAP
00
00
68
68
00
00
00
00
00
00
ENDCHAR
STARTCHAR u0023
ENCODING 35
DWIDTH 6 0
BBX 6 10 0 -1
BITMAP
00
00
68
F8
68
D8
D0
F8
D0
00
ENDCHAR
STARTCHAR u0024
ENCODING 36
DWIDTH 6 0
BBX 6 10 0 -1
BITMAP
00
30
78
D0
D0
70
38
38
F0
30
ENDCHAR
STARTCHAR u0025
ENCODING 37
DWIDTH 6 0
BBX 6 10 0 -1
BITMAP
00
00
D8
18
30
30
60
C0
D8
00
ENDCHAR
STARTCHAR u0026
ENCODING 38
DWIDTH 6 0
BBX 6 10 0 -1
BITMAP
00
00
60
D0
D0
60
D8
D0
68
00
ENDCHAR
STARTCHAR u0027
ENCODING 39
DWIDTH 6 0
BBX 6 10 0 -1
BITMAP
00
00
30
30
00
00
00
00
00
00
ENDCHAR
STARTCHAR u0028
ENCODING 40
DWIDTH 6 0
BBX 6 10 0 -1
BITMAP
00
18
30
30
60
60
60
30
30
18
ENDCHAR
STARTCHAR u0029
ENCODING 41
DWIDTH 6 0
BBX 6 10 0 -1
BITMAP
00
C0
60
60
30
30
30
60
60
C0
ENDCHAR
STARTCHAR u002A
ENCODING 42
DWIDTH 6 0
BBX 6 10 0 -1
BITMAP
00
00
00
00
68
30
78
30
68
00
ENDCHAR
STARTCHAR u002B
ENCODING 43
DWIDTH 6 0
BBX 6 10 0 -1
BITMAP
00
00
00
00
30
30
F8
30
30
00
ENDCHAR
STARTCHAR u002C
ENCODING 44
DWIDTH 6 0
BBX 6 10 0 -1
BITMAP
00
00
00
00
00
00
00
00
30
60
ENDCHAR
STARTCHAR u002D
ENCODING 45
DWIDTH 6 0
BBX 6 10 0 -1
BITMAP
00
00
00
00
00
00
F8
00
00
00
ENDCHAR
STARTCHAR u002E
ENCODING 46
DWIDTH 6 0
BBX 6 10 0 -1
BITMAP
00
00
00
00
00
00
00
00
30
00
ENDCHAR
STARTCHAR u002F
ENCODING 47
DWIDTH 6 0
BBX 6 10 0 -1
BITMAP
00
18
18
30
30
60
60
60
C0
C0
ENDCHAR
STARTCHAR u0030
ENCODING 48
DWIDTH 6 0
BBX 6 10 0 -1
BITMAP
00
00
70
D8
D8
E8
D8
D8
70
00
ENDCHAR
STARTCHAR u0031
ENCODING 49
DWIDTH 6 0
BBX 6 10 0 -1
BITMAP
00
00
30
70
30
30
30
30
78
00
ENDCHAR
STARTCHAR u0032
ENCODING 50
DWIDTH 6 0
BBX 6 10 0 -1
BITMAP
00
00
70
D8
18
30
60
C0
F8
00
ENDCHAR
STARTCHAR u0033
ENCODING 51
DWIDTH 6 0
BBX 6 10 0 -1
BITMAP
00
00
70
D8
18
30
18
D8
70
00
ENDCHAR
STARTCHAR u0034
ENCODING 52
DWIDTH 6 0
BBX 6 10 0 -1
BITMAP
00
00
38
68
68
D8
D8
F8
18
00
ENDCHAR
STARTCHAR u0035
ENCODING 53
DWIDTH 6 0
BBX 6 10 0 -1
BITMAP
00
00
F8
C0
C0
F0
18
18
F0
00
ENDCHAR
STARTCHAR u0036
ENCODING 54
DWIDTH 6 0
BBX 6 10 0 -1
BITMAP
00
00
70
D8
C0
F0
D8
D8
70
00
ENDCHAR
STARTCHAR u0037
ENCODING 55
DWIDTH 6 0
BBX 6 10 0 -1
BITMAP
00
00
F8
18
18
30
30
60
60
00
ENDCHAR
STARTCHAR u0038
ENCODING 56
DWIDTH 6 0
BBX 6 10 0 -1
BITMAP
00
00
70
D8
D8
70
D8
D8
70
00
ENDCHAR
STARTCHAR u0039
ENCODING 57
DWIDTH 6 0
BBX 6 10 0 -1
BITMAP
00
00
70
D8
D8
78
18
D8
70
00
ENDCHAR
STARTCHAR u003A
ENCODING 58
DWIDTH 6 0
BBX 6 10 0 -1
BITMAP
00
00
00
00
30
00
00
00
30
00
ENDCHAR
STARTCHAR u003B
ENCODING 59
DWIDTH 6 0
BBX 6 10 0 -1
BITMAP
00
00
00
00
30
00
00
00
30
60
ENDCHAR
STARTCHAR u003C
ENCODING 60
DWIDTH 6 0
BBX 6 10 0 -1
BITMAP
00
00
00
00
18
30
60
30
18
00
ENDCHAR
STARTCHAR u003D
ENCODING 61
DWIDTH 6 0
BBX 6 10 0 -1
BITMAP
00
00
00
00
00
F8
00
F8
00
00
ENDCHAR
STARTCHAR u003E
ENCODING 62
DWIDTH 6 0
BBX 6 10 0 -1
BITMAP
00
00
00
00
60
30
18
30
60
00
ENDCHAR
STARTCHAR u003F
ENCODING 63
DWIDTH 6 0
BBX 6 10 0 -1
BITMAP
00
00
70
D8
18
30
30
00
30
00
ENDCHAR
STARTCHAR u0040
ENCODING 64
DWIDTH 6 0
BBX 6 10 0 -1
BITMAP
00
00
70
D8
D8
D8
D8
C0
70
00
ENDCHAR
STARTCHAR u0041
ENCODING 65
DWIDTH 6 0
BBX 6 10 0 -1
BITMAP
00
00
70
D8
D8
D8
F8
D8
D8
00
ENDCHAR
STARTCHAR u0042
ENCODING 66
DWIDTH 6 0
BBX 6 10 0 -1
BITMAP
00
00
F0
D8
D8
F0
D8
D8
F0
00
ENDCHAR
STARTCHAR u0043
ENCODING 67
DWIDTH 6 0
BBX 6 10 0 -1
BITMAP
00
00
70
D8
C0
C0
C0
D8
70
00
ENDCHAR
STARTCHAR u0044
ENCODING 68
DWIDTH 6 0
BBX 6 10 0 -1
BITMAP
00
00
F0
D8
D8
D8
D8
D8
F0
00
ENDCHAR
STARTCHAR u0045
ENCODING 69
DWIDTH 6 0
BBX 6 10 0 -1
BITMAP
00
00
F8
C0
C0
F0
C0
C0
F8
00
ENDCHAR
STARTCHAR u0046
ENCODING 70
DWIDTH 6 0
BBX 6 10 0 -1
BITMAP
00
00
F8
C0
C0
F0
C0
C0
C0
00
ENDCHAR
STARTCHAR u0047
ENCODING 71
DWIDTH 6 0
BBX 6 10 0 -1
BITMAP
00
00
70
D8
C0
C0
D8
D8
78
00
ENDCHAR
STARTCHAR u0048
ENCODING 72
DWIDTH 6 0
BBX 6 10 0 -1
BITMAP
00
00
D8
D8
D8
F8
D8
D8
D8
00
ENDCHAR
STARTCHAR u0049
ENCODING 73
DWIDTH 6 0
BBX 6 10 0 -1
BITMAP
00
00
F8
30
30
30
30
30
F8
00
ENDCHAR
STARTCHAR u004A
ENCODING 74
DWIDTH 6 0
BBX 6 10 0 -1
BITMAP
00
00
18
18
18
18
D8
D8
70
00
ENDCHAR
STARTCHAR u004B
ENCODING 75
DWIDTH 6 0
BBX 6 10 0 -1
BITMAP
00
00
D8
D8
D0
E0
D0
D8
D8
00
ENDCHAR
STARTCHAR u004C
ENCODING 76
DWIDTH 6 0
BBX 6 10 0 -1
BITMAP
00
00
C0
C0
C0
C0
C0
C0
F8
00
ENDCHAR
STARTCHAR u004D
ENCODING 77
DWIDTH 6 0
BBX 6 10 0 -1
BITMAP
00
00
D8
F8
F8
D8
D8
D8
D8
00
ENDCHAR
STARTCHAR u004E
ENCODING 78
DWIDTH 6 0
BBX 6 10 0 -1
BITMAP
00
00
D8
E8
E8
D8
D8
D8
D8
00
ENDCHAR
STARTCHAR u004F
ENCODING 79
DWIDTH 6 0
BBX 6 10 0 -1
BITMAP
00
00
70
D8
D8
D8
D8
D8
70
00
ENDCHAR
STARTCHAR u0050
ENCODING 80
DWIDTH 6 0
BBX 6 10 0 -1
BITMAP
00
00
F0
D8
D8
F0
C0
C0
C0
00
ENDCHAR
STARTCHAR u0051
ENCODING 81
DWIDTH 6 0
BBX 6 10 0 -1
BITMAP
00
00
70
D8
D8
D8
D8
D0
68
00
ENDCHAR
STARTCHAR u0052
ENCODING 82
DWIDTH 6 0
BBX 6 10 0 -1
BITMAP
00
00
F0
D8
D8
F0
D0
D8
D8
00
ENDCHAR
STARTCHAR u0053
ENCODING 83
DWIDTH 6 0
BBX 6 10 0 -1
BITMAP
00
00
70
D8
C0
70
18
D8
70
00
ENDCHAR
STARTCHAR u0054
ENCODING 84
DWIDTH 6 0
BBX 6 10 0 -1
BITMAP
00
00
F8
30
30
30
30
30
30
00
ENDCHAR
STARTCHAR u0055
ENCODING 85
DWIDTH 6 0
BBX 6 10 0 -1
BITMAP
00
00
D8
D8
D8
D8
D8
D8
70
00
ENDCHAR
STARTCHAR u0056
ENCODING 86
DWIDTH 6 0
BBX 6 10 0 -1
BITMAP
00
00
D8
D8
D8
D0
D0
D0
E0
00
ENDCHAR
STARTCHAR u0057
ENCODING 87
DWIDTH 6 0
BBX 6 10 0 -1
BITMAP
00
00
D8
D8
D8
D8
F8
F8
D8
00
ENDCHAR
STARTCHAR u0058
ENCODING 88
DWIDTH 6 0
BBX 6 10 0 -1
BITMAP
00
00
D8
D8
D8
70
D8
D8
D8
00
ENDCHAR
STARTCHAR u0059
ENCODING 89
DWIDTH 6 0
BBX 6 10 0 -1
BITMAP
00
00
D8
D8
68
68
30
30
30
00
ENDCHAR
STARTCHAR u005A
ENCODING 90
DWIDTH 6 0
BBX 6 10 0 -1
BITMAP
00
00
F8
18
30
60
60
C0
F8
00
ENDCHAR
STARTCHAR u005B
ENCODING 91
DWIDTH 6 0
BBX 6 10 0 -1
BITMAP
00
78
60
60
60
60
60
60
60
78
ENDCHAR
STARTCHAR u005C
ENCODING 92
DWIDTH 6 0
BBX 6 10 0 -1
BITMAP
00
C0
C0
60
60
30
30
30
18
18
ENDCHAR
STARTCHAR u005D
ENCODING 93
DWIDTH 6 0
BBX 6 10 0 -1
BITMAP
00
F0
30
30
30
30
30
30
30
F0
ENDCHAR
STARTCHAR u005E
ENCODING 94
DWIDTH 6 0
BBX 6 10 0 -1
BITMAP
00
00
30
68
00
00
00
00
00
00
ENDCHAR
STARTCHAR u005F
ENCODING 95
DWIDTH 6 0
BBX 6 10 0 -1
BITMAP
00
00
00
00
00
00
00
00
00
F8
ENDCHAR
STARTCHAR u0060
ENCODING 96
DWIDTH 6 0
BBX 6 10 0 -1
BITMAP
00
00
60
30
00
00
00
00
00
00
ENDCHAR
STARTCHAR u0061
ENCODING 97
DWIDTH 6 0
BBX 6 10 0 -1
BITMAP
00
00
00
00
70
18
78
D8
78
00
ENDCHAR
STARTCHAR u0062
ENCODING 98
DWIDTH 6 0
BBX 6 10 0 -1
BITMAP
00
00
C0
C0
F0
D8
D8
D8
F0
00
ENDCHAR
STARTCHAR u0063
ENCODING 99
DWIDTH 6 0
BBX 6 10 0 -1
BITMAP
00
00
00
00
70
D8
C0
D8
70
00
ENDCHAR
STARTCHAR u0064
ENCODING 100
DWIDTH 6 0
BBX 6 10 0 -1
BITMAP
00
00
18
18
78
D8
D8
D8
78
00
ENDCHAR
STARTCHAR u0065
ENCODING 101
DWIDTH 6 0
BBX 6 10 0 -1
BITMAP
00
00
00
00
70
D8
F8
C0
70
00
ENDCHAR
STARTCHAR u0066
ENCODING 102
DWIDTH 6 0
BBX 6 10 0 -1
BITMAP
00
00
38
60
F8
60
60
60
60
00
ENDCHAR
STARTCHAR u0067
ENCODING 103
DWIDTH 6 0
BBX 6 10 0 -1
BITMAP
00
00
00
00
78
D8
D8
78
18
70
ENDCHAR
STARTCHAR u0068
ENCODING 104
DWIDTH 6 0
BBX 6 10 0 -1
BITMAP
00
00
C0
C0
F0
D8
D8
D8
D8
00
ENDCHAR
STARTCHAR u0069
ENCODING 105
DWIDTH 6 0
BBX 6 10 0 -1
BITMAP
00
00
30
00
F0
30
30
30
F8
00
ENDCHAR
STARTCHAR u006A
ENCODING 106
DWIDTH 6 0
BBX 6 10 0 -1
BITMAP
00
00
30
00
F0
30
30
30
30
E0
ENDCHAR
STARTCHAR u006B
ENCODING 107
DWIDTH 6 0
BBX 6 10 0 -1
BITMAP
00
00
C0
C0
D8
D0
E0
D0
D8
00
ENDCHAR
STARTCHAR u006C
ENCODING 108
DWIDTH 6 0
BBX 6 10 0 -1
BITMAP
00
00
E0
60
60
60
60
60
38
00
ENDCHAR
STARTCHAR u006D
ENCODING 109
DWIDTH 6 0
BBX 6 10 0 -1
BITMAP
00
00
00
00
D8
F8
F8
D8
D8
00
ENDCHAR
STARTCHAR u006E
ENCODING 110
DWIDTH 6 0
BBX 6 10 0 -1
BITMAP
00
00
00
00
F0
D8
D8
D8
D8
00
ENDCHAR
STARTCHAR u006F
ENCODING 111
DWIDTH 6 0
BBX 6 10 0 -1
BITMAP
00
00
00
00
70
D8
D8
D8
70
00
ENDCHAR
STARTCHAR u0070
ENCODING 112
DWIDTH 6 0
BBX 6 10 0 -1
BITMAP
00
00
00
00
F0
D8
D8
F0
C0
C0
ENDCHAR
STARTCHAR u0071
ENCODING 113
DWIDTH 6 0
BBX 6 10 0 -1
BITMAP
00
00
00
00
78
D8
D8
78
18
18
ENDCHAR
STARTCHAR u0072
ENCODING 114
DWIDTH 6 0
BBX 6 10 0 -1
BITMAP
00
00
00
00
D8
E0
C0
C0
C0
00
ENDCHAR
STARTCHAR u0073
ENCODING 115
DWIDTH 6 0
BBX 6 10 0 -1
BITMAP
00
00
00
00
78
C0
70
18
F0
00
ENDCHAR
STARTCHAR u0074
ENCODING 116
DWIDTH 6 0
BBX 6 10 0 -1
BITMAP
00
00
60
60
F8
60
60
60
38
00
ENDCHAR
STARTCHAR u0075
ENCODING 117
DWIDTH 6 0
BBX 6 10 0 -1
BITMAP
00
00
00
00
D8
D8
D8
D8
78
00
ENDCHAR
STARTCHAR u0076
ENCODING 118
DWIDTH 6 0
BBX 6 10 0 -1
BITMAP
00
00
00
00
D8
D8
D0
D0
E0
00
ENDCHAR
STARTCHAR u0077
ENCODING 119
DWIDTH 6 0
BBX 6 10 0 -1
BITMAP
00
00
00
00
D8
D8
F8
F8
D8
00
ENDCHAR
STARTCHAR u0078
ENCODING 120
DWIDTH 6 0
BBX 6 10 0 -1
BITMAP
00
00
00
00
D8
D8
70
D8
D8
00
ENDCHAR
STARTCHAR u0079
ENCODING 121
DWIDTH 6 0
BBX 6 10 0 -1
BITMAP
00
00
00
00
D8
D8
68
68
30
E0
ENDCHAR
STARTCHAR u007A
ENCODING 122
DWIDTH 6 0
BBX 6 10 0 -1
BITMAP
00
00
00
00
F8
30
60
C0
F8
00
ENDCHAR
STARTCHAR u007B
ENCODING 123
DWIDTH 6 0
BBX 6 10 0 -1
BITMAP
00
38
60
60
60
C0
60
60
60
38
ENDCHAR
STARTCHAR u007C
ENCODING 124
DWIDTH 6 0
BBX 6 10 0 -1
BITMAP
00
30
30
30
30
30
30
30
30
30
ENDCHAR
STARTCHAR u007D
ENCODING 125
DWIDTH 6 0
BBX 6 10 0 -1
BITMAP
00
E0
30
30
30
18
30
30
30
E0
ENDCHAR
STARTCHAR u007E
ENCODING 126
DWIDTH 6 0
BBX 6 10 0 -1
BITMAP
00
00
00
00
68
D0
00
00
00
00
ENDCHAR
STARTCHAR u007F
ENCODING 127
DWIDTH 6 0
BBX 6 10 0 -1
BITMAP
00
00
00
00
00
00
00
00
00
00
ENDCHAR
ENDFONT
