STARTFONT 2.1
FONT -Luma-Luma UI-10-100-75-75-C-50-ISO10646-1
SIZE 10 75 75
FONTBOUNDINGBOX 5 10 0 -1
STARTPROPERTIES 3
FAMILY_NAME "Luma UI"
FONT_VERSION "regular"
COPYRIGHT "Derived from Fusion Pixel Font / Fusion Bold Pixel Font (OFL-1.1)"
ENDPROPERTIES
CHARS 96
STARTCHAR u0020
ENCODING 32
DWIDTH 5 0
BBX 5 10 0 -1
BITMAP
00
00
00
00
00
00
00
00
00
00
ENDCHAR
STARTCHAR u0021
ENCODING 33
DWIDTH 5 0
BBX 5 10 0 -1
BITMAP
00
00
20
20
20
20
20
00
20
00
ENDCHAR
STARTCHAR u0022
ENCODING 34
DWIDTH 5 0
BBX 5 10 0 -1
BITMAP
00
00
50
50
00
00
00
00
00
00
ENDCHAR
STARTCHAR u0023
ENCODING 35
DWIDTH 5 0
BBX 5 10 0 -1
BITMAP
00
00
50
F0
50
90
A0
F0
A0
00
ENDCHAR
STARTCHAR u0024
ENCODING 36
DWIDTH 5 0
BBX 5 10 0 -1
BITMAP
00
20
70
A0
A0
60
30
30
E0
20
ENDCHAR
STARTCHAR u0025
ENCODING 37
DWIDTH 5 0
BBX 5 10 0 -1
BITMAP
00
00
90
10
20
20
40
80
90
00
ENDCHAR
STARTCHAR u0026
ENCODING 38
DWIDTH 5 0
BBX 5 10 0 -1
BITMAP
00
00
40
A0
A0
40
B0
A0
50
00
ENDCHAR
STARTCHAR u0027
ENCODING 39
DWIDTH 5 0
BBX 5 10 0 -1
BITMAP
00
00
20
20
00
00
00
00
00
00
ENDCHAR
STARTCHAR u0028
ENCODING 40
DWIDTH 5 0
BBX 5 10 0 -1
BITMAP
00
10
20
20
40
40
40
20
20
10
ENDCHAR
STARTCHAR u0029
ENCODING 41
DWIDTH 5 0
BBX 5 10 0 -1
BITMAP
00
80
40
40
20
20
20
40
40
80
ENDCHAR
STARTCHAR u002A
ENCODING 42
DWIDTH 5 0
BBX 5 10 0 -1
BITMAP
00
00
00
00
50
20
70
20
50
00
ENDCHAR
STARTCHAR u002B
ENCODING 43
DWIDTH 5 0
BBX 5 10 0 -1
BITMAP
00
00
00
00
20
20
F0
20
20
00
ENDCHAR
STARTCHAR u002C
ENCODING 44
DWIDTH 5 0
BBX 5 10 0 -1
BITMAP
00
00
00
00
00
00
00
00
20
40
ENDCHAR
STARTCHAR u002D
ENCODING 45
DWIDTH 5 0
BBX 5 10 0 -1
BITMAP
00
00
00
00
00
00
F0
00
00
00
ENDCHAR
STARTCHAR u002E
ENCODING 46
DWIDTH 5 0
BBX 5 10 0 -1
BITMAP
00
00
00
00
00
00
00
00
20
00
ENDCHAR
STARTCHAR u002F
ENCODING 47
DWIDTH 5 0
BBX 5 10 0 -1
BITMAP
00
10
10
20
20
40
40
40
80
80
ENDCHAR
STARTCHAR u0030
ENCODING 48
DWIDTH 5 0
BBX 5 10 0 -1
BITMAP
00
00
60
90
B0
D0
90
90
60
00
ENDCHAR
STARTCHAR u0031
ENCODING 49
DWIDTH 5 0
BBX 5 10 0 -1
BITMAP
00
00
20
60
20
20
20
20
70
00
ENDCHAR
STARTCHAR u0032
ENCODING 50
DWIDTH 5 0
BBX 5 10 0 -1
BITMAP
00
00
60
90
10
20
40
80
F0
00
ENDCHAR
STARTCHAR u0033
ENCODING 51
DWIDTH 5 0
BBX 5 10 0 -1
BITMAP
00
00
60
90
10
20
10
90
60
00
ENDCHAR
STARTCHAR u0034
ENCODING 52
DWIDTH 5 0
BBX 5 10 0 -1
BITMAP
00
00
30
50
50
90
90
F0
10
00
ENDCHAR
STARTCHAR u0035
ENCODING 53
DWIDTH 5 0
BBX 5 10 0 -1
BITMAP
00
00
F0
80
80
E0
10
10
E0
00
ENDCHAR
STARTCHAR u0036
ENCODING 54
DWIDTH 5 0
BBX 5 10 0 -1
BITMAP
00
00
60
90
80
E0
90
90
60
00
ENDCHAR
STARTCHAR u0037
ENCODING 55
DWIDTH 5 0
BBX 5 10 0 -1
BITMAP
00
00
F0
10
10
20
20
40
40
00
ENDCHAR
STARTCHAR u0038
ENCODING 56
DWIDTH 5 0
BBX 5 10 0 -1
BITMAP
00
00
60
90
90
60
90
90
60
00
ENDCHAR
STARTCHAR u0039
ENCODING 57
DWIDTH 5 0
BBX 5 10 0 -1
BITMAP
00
00
60
90
90
70
10
90
60
00
ENDCHAR
STARTCHAR u003A
ENCODING 58
DWIDTH 5 0
BBX 5 10 0 -1
BITMAP
00
00
00
00
20
00
00
00
20
00
ENDCHAR
STARTCHAR u003B
ENCODING 59
DWIDTH 5 0
BBX 5 10 0 -1
BITMAP
00
00
00
00
20
00
00
00
20
40
ENDCHAR
STARTCHAR u003C
ENCODING 60
DWIDTH 5 0
BBX 5 10 0 -1
BITMAP
00
00
00
00
10
20
40
20
10
00
ENDCHAR
STARTCHAR u003D
ENCODING 61
DWIDTH 5 0
BBX 5 10 0 -1
BITMAP
00
00
00
00
00
F0
00
F0
00
00
ENDCHAR
STARTCHAR u003E
ENCODING 62
DWIDTH 5 0
BBX 5 10 0 -1
BITMAP
00
00
00
00
40
20
10
20
40
00
ENDCHAR
STARTCHAR u003F
ENCODING 63
DWIDTH 5 0
BBX 5 10 0 -1
BITMAP
00
00
60
90
10
20
20
00
20
00
ENDCHAR
STARTCHAR u0040
ENCODING 64
DWIDTH 5 0
BBX 5 10 0 -1
BITMAP
00
00
60
90
B0
B0
B0
80
60
00
ENDCHAR
STARTCHAR u0041
ENCODING 65
DWIDTH 5 0
BBX 5 10 0 -1
BITMAP
00
00
60
90
90
90
F0
90
90
00
ENDCHAR
STARTCHAR u0042
ENCODING 66
DWIDTH 5 0
BBX 5 10 0 -1
BITMAP
00
00
E0
90
90
E0
90
90
E0
00
ENDCHAR
STARTCHAR u0043
ENCODING 67
DWIDTH 5 0
BBX 5 10 0 -1
BITMAP
00
00
60
90
80
80
80
90
60
00
ENDCHAR
STARTCHAR u0044
ENCODING 68
DWIDTH 5 0
BBX 5 10 0 -1
BITMAP
00
00
E0
90
90
90
90
90
E0
00
ENDCHAR
STARTCHAR u0045
ENCODING 69
DWIDTH 5 0
BBX 5 10 0 -1
BITMAP
00
00
F0
80
80
E0
80
80
F0
00
ENDCHAR
STARTCHAR u0046
ENCODING 70
DWIDTH 5 0
BBX 5 10 0 -1
BITMAP
00
00
F0
80
80
E0
80
80
80
00
ENDCHAR
STARTCHAR u0047
ENCODING 71
DWIDTH 5 0
BBX 5 10 0 -1
BITMAP
00
00
60
90
80
80
B0
90
70
00
ENDCHAR
STARTCHAR u0048
ENCODING 72
DWIDTH 5 0
BBX 5 10 0 -1
BITMAP
00
00
90
90
90
F0
90
90
90
00
ENDCHAR
STARTCHAR u0049
ENCODING 73
DWIDTH 5 0
BBX 5 10 0 -1
BITMAP
00
00
F0
20
20
20
20
20
F0
00
ENDCHAR
STARTCHAR u004A
ENCODING 74
DWIDTH 5 0
BBX 5 10 0 -1
BITMAP
00
00
10
10
10
10
90
90
60
00
ENDCHAR
STARTCHAR u004B
ENCODING 75
DWIDTH 5 0
BBX 5 10 0 -1
BITMAP
00
00
90
90
A0
C0
A0
90
90
00
ENDCHAR
STARTCHAR u004C
ENCODING 76
DWIDTH 5 0
BBX 5 10 0 -1
BITMAP
00
00
80
80
80
80
80
80
F0
00
ENDCHAR
STARTCHAR u004D
ENCODING 77
DWIDTH 5 0
BBX 5 10 0 -1
BITMAP
00
00
90
F0
F0
90
90
90
90
00
ENDCHAR
STARTCHAR u004E
ENCODING 78
DWIDTH 5 0
BBX 5 10 0 -1
BITMAP
00
00
90
D0
D0
B0
B0
90
90
00
ENDCHAR
STARTCHAR u004F
ENCODING 79
DWIDTH 5 0
BBX 5 10 0 -1
BITMAP
00
00
60
90
90
90
90
90
60
00
ENDCHAR
STARTCHAR u0050
ENCODING 80
DWIDTH 5 0
BBX 5 10 0 -1
BITMAP
00
00
E0
90
90
E0
80
80
80
00
ENDCHAR
STARTCHAR u0051
ENCODING 81
DWIDTH 5 0
BBX 5 10 0 -1
BITMAP
00
00
60
90
90
90
90
A0
50
00
ENDCHAR
STARTCHAR u0052
ENCODING 82
DWIDTH 5 0
BBX 5 10 0 -1
BITMAP
00
00
E0
90
90
E0
A0
90
90
00
ENDCHAR
STARTCHAR u0053
ENCODING 83
DWIDTH 5 0
BBX 5 10 0 -1
BITMAP
00
00
60
90
80
60
10
90
60
00
ENDCHAR
STARTCHAR u0054
ENCODING 84
DWIDTH 5 0
BBX 5 10 0 -1
BITMAP
00
00
F0
20
20
20
20
20
20
00
ENDCHAR
STARTCHAR u0055
ENCODING 85
DWIDTH 5 0
BBX 5 10 0 -1
BITMAP
00
00
90
90
90
90
90
90
60
00
ENDCHAR
STARTCHAR u0056
ENCODING 86
DWIDTH 5 0
BBX 5 10 0 -1
BITMAP
00
00
90
90
90
A0
A0
A0
C0
00
ENDCHAR
STARTCHAR u0057
ENCODING 87
DWIDTH 5 0
BBX 5 10 0 -1
BITMAP
00
00
90
90
90
90
F0
F0
90
00
ENDCHAR
STARTCHAR u0058
ENCODING 88
DWIDTH 5 0
BBX 5 10 0 -1
BITMAP
00
00
90
90
90
60
90
90
90
00
ENDCHAR
STARTCHAR u0059
ENCODING 89
DWIDTH 5 0
BBX 5 10 0 -1
BITMAP
00
00
90
90
50
50
20
20
20
00
ENDCHAR
STARTCHAR u005A
ENCODING 90
DWIDTH 5 0
BBX 5 10 0 -1
BITMAP
00
00
F0
10
20
40
40
80
F0
00
ENDCHAR
STARTCHAR u005B
ENCODING 91
DWIDTH 5 0
BBX 5 10 0 -1
BITMAP
00
70
40
40
40
40
40
40
40
70
ENDCHAR
STARTCHAR u005C
ENCODING 92
DWIDTH 5 0
BBX 5 10 0 -1
BITMAP
00
80
80
40
40
20
20
20
10
10
ENDCHAR
STARTCHAR u005D
ENCODING 93
DWIDTH 5 0
BBX 5 10 0 -1
BITMAP
00
E0
20
20
20
20
20
20
20
E0
ENDCHAR
STARTCHAR u005E
ENCODING 94
DWIDTH 5 0
BBX 5 10 0 -1
BITMAP
00
00
20
50
00
00
00
00
00
00
ENDCHAR
STARTCHAR u005F
ENCODING 95
DWIDTH 5 0
BBX 5 10 0 -1
BITMAP
00
00
00
00
00
00
00
00
00
F0
ENDCHAR
STARTCHAR u0060
ENCODING 96
DWIDTH 5 0
BBX 5 10 0 -1
BITMAP
00
00
40
20
00
00
00
00
00
00
ENDCHAR
STARTCHAR u0061
ENCODING 97
DWIDTH 5 0
BBX 5 10 0 -1
BITMAP
00
00
00
00
60
10
70
90
70
00
ENDCHAR
STARTCHAR u0062
ENCODING 98
DWIDTH 5 0
BBX 5 10 0 -1
BITMAP
00
00
80
80
E0
90
90
90
E0
00
ENDCHAR
STARTCHAR u0063
ENCODING 99
DWIDTH 5 0
BBX 5 10 0 -1
BITMAP
00
00
00
00
60
90
80
90
60
00
ENDCHAR
STARTCHAR u0064
ENCODING 100
DWIDTH 5 0
BBX 5 10 0 -1
BITMAP
00
00
10
10
70
90
90
90
70
00
ENDCHAR
STARTCHAR u0065
ENCODING 101
DWIDTH 5 0
BBX 5 10 0 -1
BITMAP
00
00
00
00
60
90
F0
80
60
00
ENDCHAR
STARTCHAR u0066
ENCODING 102
DWIDTH 5 0
BBX 5 10 0 -1
BITMAP
00
00
30
40
F0
40
40
40
40
00
ENDCHAR
STARTCHAR u0067
ENCODING 103
DWIDTH 5 0
BBX 5 10 0 -1
BITMAP
00
00
00
00
70
90
90
70
10
60
ENDCHAR
STARTCHAR u0068
ENCODING 104
DWIDTH 5 0
BBX 5 10 0 -1
BITMAP
00
00
80
80
E0
90
90
90
90
00
ENDCHAR
STARTCHAR u0069
ENCODING 105
DWIDTH 5 0
BBX 5 10 0 -1
BITMAP
00
00
20
00
E0
20
20
20
F0
00
ENDCHAR
STARTCHAR u006A
ENCODING 106
DWIDTH 5 0
BBX 5 10 0 -1
BITMAP
00
00
20
00
E0
20
20
20
20
C0
ENDCHAR
STARTCHAR u006B
ENCODING 107
DWIDTH 5 0
BBX 5 10 0 -1
BITMAP
00
00
80
80
90
A0
C0
A0
90
00
ENDCHAR
STARTCHAR u006C
ENCODING 108
DWIDTH 5 0
BBX 5 10 0 -1
BITMAP
00
00
C0
40
40
40
40
40
30
00
ENDCHAR
STARTCHAR u006D
ENCODING 109
DWIDTH 5 0
BBX 5 10 0 -1
BITMAP
00
00
00
00
90
F0
F0
90
90
00
ENDCHAR
STARTCHAR u006E
ENCODING 110
DWIDTH 5 0
BBX 5 10 0 -1
BITMAP
00
00
00
00
E0
90
90
90
90
00
ENDCHAR
STARTCHAR u006F
ENCODING 111
DWIDTH 5 0
BBX 5 10 0 -1
BITMAP
00
00
00
00
60
90
90
90
60
00
ENDCHAR
STARTCHAR u0070
ENCODING 112
DWIDTH 5 0
BBX 5 10 0 -1
BITMAP
00
00
00
00
E0
90
90
E0
80
80
ENDCHAR
STARTCHAR u0071
ENCODING 113
DWIDTH 5 0
BBX 5 10 0 -1
BITMAP
00
00
00
00
70
90
90
70
10
10
ENDCHAR
STARTCHAR u0072
ENCODING 114
DWIDTH 5 0
BBX 5 10 0 -1
BITMAP
00
00
00
00
B0
C0
80
80
80
00
ENDCHAR
STARTCHAR u0073
ENCODING 115
DWIDTH 5 0
BBX 5 10 0 -1
BITMAP
00
00
00
00
70
80
60
10
E0
00
ENDCHAR
STARTCHAR u0074
ENCODING 116
DWIDTH 5 0
BBX 5 10 0 -1
BITMAP
00
00
40
40
F0
40
40
40
30
00
ENDCHAR
STARTCHAR u0075
ENCODING 117
DWIDTH 5 0
BBX 5 10 0 -1
BITMAP
00
00
00
00
90
90
90
90
70
00
ENDCHAR
STARTCHAR u0076
ENCODING 118
DWIDTH 5 0
BBX 5 10 0 -1
BITMAP
00
00
00
00
90
90
A0
A0
C0
00
ENDCHAR
STARTCHAR u0077
ENCODING 119
DWIDTH 5 0
BBX 5 10 0 -1
BITMAP
00
00
00
00
90
90
F0
F0
90
00
ENDCHAR
STARTCHAR u0078
ENCODING 120
DWIDTH 5 0
BBX 5 10 0 -1
BITMAP
00
00
00
00
90
90
60
90
90
00
ENDCHAR
STARTCHAR u0079
ENCODING 121
DWIDTH 5 0
BBX 5 10 0 -1
BITMAP
00
00
00
00
90
90
50
50
20
C0
ENDCHAR
STARTCHAR u007A
ENCODING 122
DWIDTH 5 0
BBX 5 10 0 -1
BITMAP
00
00
00
00
F0
20
40
80
F0
00
ENDCHAR
STARTCHAR u007B
ENCODING 123
DWIDTH 5 0
BBX 5 10 0 -1
BITMAP
00
30
40
40
40
80
40
40
40
30
ENDCHAR
STARTCHAR u007C
ENCODING 124
DWIDTH 5 0
BBX 5 10 0 -1
BITMAP
00
20
20
20
20
20
20
20
20
20
ENDCHAR
STARTCHAR u007D
ENCODING 125
DWIDTH 5 0
BBX 5 10 0 -1
BITMAP
00
C0
20
20
20
10
20
20
20
C0
ENDCHAR
STARTCHAR u007E
ENCODING 126
DWIDTH 5 0
BBX 5 10 0 -1
BITMAP
00
00
00
00
50
A0
00
00
00
00
ENDCHAR
STARTCHAR u007F
ENCODING 127
DWIDTH 5 0
BBX 5 10 0 -1
BITMAP
00
00
00
00
00
00
00
00
00
00
ENDCHAR
ENDFONT
